<svg width="14" height="16" viewBox="0 0 14 16" fill="none" xmlns="http://www.w3.org/2000/svg">
<path fill-rule="evenodd" clip-rule="evenodd" d="M4.375 8C4.375 7.75838 4.57088 7.5625 4.8125 7.5625H9.1875C9.42912 7.5625 9.625 7.75838 9.625 8C9.625 8.24162 9.42912 8.4375 9.1875 8.4375H4.8125C4.57088 8.4375 4.375 8.24162 4.375 8Z" fill="#FBFBFC"/>
<path fill-rule="evenodd" clip-rule="evenodd" d="M7 5.375C7.24162 5.375 7.4375 5.57088 7.4375 5.8125V10.1875C7.4375 10.4291 7.24162 10.625 7 10.625C6.75838 10.625 6.5625 10.4291 6.5625 10.1875V5.8125C6.5625 5.57088 6.75838 5.375 7 5.375Z" fill="#FBFBFC"/>
<path fill-rule="evenodd" clip-rule="evenodd" d="M1.3125 5.375C1.3125 3.68363 2.68363 2.3125 4.375 2.3125H9.625C11.3164 2.3125 12.6875 3.68363 12.6875 5.375V10.625C12.6875 12.3164 11.3164 13.6875 9.625 13.6875H4.375C2.68363 13.6875 1.3125 12.3164 1.3125 10.625V5.375ZM4.375 3.1875C3.16688 3.1875 2.1875 4.16688 2.1875 5.375V10.625C2.1875 11.8331 3.16688 12.8125 4.375 12.8125H9.625C10.8331 12.8125 11.8125 11.8331 11.8125 10.625V5.375C11.8125 4.16688 10.8331 3.1875 9.625 3.1875H4.375Z" fill="#FBFBFC"/>
</svg>
